<svg viewBox="0 0 24 24" xmlns="http://www.w3.org/2000/svg" fill="none" stroke="#000000"><g id="SVGRepo_bgCarrier" stroke-width="0"></g><g id="SVGRepo_tracerCarrier" stroke-linecap="round" stroke-linejoin="round" stroke="#0d0d0d" stroke-width="2.016"><path fill="#ffffff" fill-rule="evenodd" d="M3 6a3 3 0 0 1 3-3h12a3 3 0 0 1 3 3v12a3 3 0 0 1-3 3H6a3 3 0 0 1-3-3V6zm10 2a1 1 0 1 0-2 0v8a1 1 0 1 0 2 0V8zm-4 3a1 1 0 1 0-2 0v5a1 1 0 1 0 2 0v-5zm8 3a1 1 0 1 0-2 0v2a1 1 0 1 0 2 0v-2z" clip-rule="evenodd"></path></g><g id="SVGRepo_iconCarrier"><path fill="#ffffff" fill-rule="evenodd" d="M3 6a3 3 0 0 1 3-3h12a3 3 0 0 1 3 3v12a3 3 0 0 1-3 3H6a3 3 0 0 1-3-3V6zm10 2a1 1 0 1 0-2 0v8a1 1 0 1 0 2 0V8zm-4 3a1 1 0 1 0-2 0v5a1 1 0 1 0 2 0v-5zm8 3a1 1 0 1 0-2 0v2a1 1 0 1 0 2 0v-2z" clip-rule="evenodd"></path></g></svg>